# xmcd
#
# Track frame offsets: 
#        150
#        30527
#        52650
#        75863
#        94999
#        116408
#        120233
#        141132
#        160970
#        180380
#        201263
#        208903
#        229100
#        246865
#        265560
#        285393
#        290680
#        311995
#
# Disc length: 4544 seconds
#
# Revision: 8
# Processed by: cddbd v1.5.2PL0 Copyright (c) Steve Scherf et al.
# Submitted via: ExactAudioCopyFreeDBPlugin 1.0
#
DISCID=f311be12
DTITLE=サンボパスター - 僕と君のすべてをロックンロールと呼べ
DYEAR=2006
DGENRE=Rock
TTITLE0=二人ぼっちの世界
TTITLE1=手紙～来たるべき音楽として～
TTITLE2=世界はそれを愛と呼ぶんだぜ
TTITLE3=君の声は僕の恋僕の名は君の夜
TTITLE4=絶望と欲望と男の子と女の子
TTITLE5=世界はそれでも沈んでいくんだぜ
TTITLE6=戦争と僕
TTITLE7=愛しさと心の壁
TTITLE8=心音風景
TTITLE9=ゲットバックサンボマスター
TTITLE10=あの娘の水着になってみたいのだ
TTITLE11=二つの涙
TTITLE12=離れない二人
TTITLE13=ベイビー優しい夜が来て
TTITLE14=全ての夜と全ての朝にタンバリンを鳴らすのだ
TTITLE15=東京の夜さようなら
TTITLE16=僕と君の全ては新しき歌で唄え
TTITLE17=何気なくて偉大な君
EXTD=YEAR: 2006
EXTT0=
EXTT1=
EXTT2=
EXTT3=
EXTT4=
EXTT5=
EXTT6=
EXTT7=
EXTT8=
EXTT9=
EXTT10=
EXTT11=
EXTT12=
EXTT13=
EXTT14=
EXTT15=
EXTT16=
EXTT17=
PLAYORDER=
